<?xml version="1.0" encoding="utf-8"?>
<svg version="1.1" id="Ñëîé_1" xmlns="http://www.w3.org/2000/svg" x="0px" y="0px" viewBox="0 0 1920 1080" style="enable-background:new 0 0 600 450;" width="1920px" height="1080px" xmlns:bx="https://boxy-svg.com">
  <defs>
    <bx:export>
      <bx:file format="svg" path="bacground.svg"/>
      <bx:file format="svg" href="#object-0"/>
    </bx:export>
  </defs>
  <radialGradient id="SVGID_1_" cx="171.4004" cy="135.2401" r="733.4801" gradientTransform="matrix(3.591306, 0, 0, 2.68225, -410.578193, -600.115883)" gradientUnits="userSpaceOnUse">
    <stop offset="0.004" style="stop-color:#4C02F1"/>
    <stop offset="0.0082" style="stop-color:#4B02EF"/>
    <stop offset="0.1263" style="stop-color:#3903C4"/>
    <stop offset="0.2487" style="stop-color:#29039E"/>
    <stop offset="0.3765" style="stop-color:#1D0380"/>
    <stop offset="0.5099" style="stop-color:#130468"/>
    <stop offset="0.6513" style="stop-color:#0C0457"/>
    <stop offset="0.8062" style="stop-color:#07044D"/>
    <stop offset="1" style="stop-color:#06044A"/>
  </radialGradient>
  <rect style="fill: url(&quot;#SVGID_1_&quot;); transform-box: fill-box; transform-origin: 50% 50%;" width="1984.51" height="1109.39" y="14.437" x="-13.947" transform="matrix(0.999993, -0.003695, 0.006554, 0.999983, -22.100853, -21.163311)" id="object-0"/>
  <linearGradient id="SVGID_00000106147835161311353580000009284077043768103316_" gradientUnits="userSpaceOnUse" x1="481.059" y1="306.9162" x2="513.6703" y2="306.9162" gradientTransform="matrix(2.228532, 0, 0.005606, 2.140091, -31.423653, -54.613224)">
    <stop offset="0" style="stop-color:#E39A65"/>
    <stop offset="1" style="stop-color:#E95F8D"/>
  </linearGradient>
  <path style="fill: url(&quot;#SVGID_00000106147835161311353580000009284077043768103316_&quot;);" d="M 1078.75 622.736 C 1076.06 622.736 1073.38 622.072 1070.97 620.746 L 1044.79 606.241 C 1043.27 605.405 1042.36 603.895 1042.35 602.215 C 1042.35 600.534 1043.26 599.029 1044.77 598.186 L 1070.89 583.684 C 1075.67 581.033 1081.62 581.029 1086.41 583.684 L 1112.6 598.186 C 1114.11 599.029 1115.03 600.534 1115.03 602.215 C 1115.04 603.895 1114.13 605.405 1112.62 606.241 L 1086.5 620.746 C 1084.1 622.072 1081.43 622.736 1078.75 622.736 Z M 1078.64 585.678 C 1076.69 585.678 1074.72 586.167 1072.98 587.135 L 1046.85 601.636 C 1046.54 601.806 1046.5 602.073 1046.5 602.215 C 1046.5 602.355 1046.54 602.625 1046.85 602.796 L 1073.06 617.295 C 1073.06 617.295 1073.06 617.295 1073.06 617.295 C 1076.56 619.239 1080.91 619.239 1084.42 617.295 L 1110.55 602.796 C 1110.84 602.63 1110.88 602.36 1110.88 602.215 C 1110.88 602.073 1110.84 601.806 1110.54 601.636 L 1084.34 587.135 C 1082.58 586.164 1080.6 585.678 1078.64 585.678 Z"/>
  <linearGradient id="SVGID_00000118398637073247479030000008577699592739342771_" gradientUnits="userSpaceOnUse" x1="436.4076" y1="262.223" x2="491.186" y2="262.223" gradientTransform="matrix(1.899931, 0, 0.004777, 1.638326, 129.648696, 76.527921)">
    <stop offset="0" style="stop-color:#E39A65"/>
    <stop offset="1" style="stop-color:#E95F8D"/>
  </linearGradient>
  <path style="fill: url(&quot;#SVGID_00000118398637073247479030000008577699592739342771_&quot;);" d="M 1012.16 532.072 C 1008.44 532.072 1004.73 531.247 1001.41 529.595 L 962.98 510.491 C 961.149 509.579 960.053 507.955 960.048 506.134 C 960.041 504.317 961.129 502.689 962.954 501.781 L 1001.27 482.675 C 1007.88 479.372 1016.12 479.371 1022.76 482.675 L 1061.19 501.781 C 1063.03 502.689 1064.13 504.317 1064.14 506.134 C 1064.14 507.953 1063.04 509.579 1061.22 510.493 L 1022.9 529.595 C 1019.59 531.245 1015.87 532.072 1012.16 532.072 Z M 1003.16 526.956 C 1008.72 529.709 1015.6 529.709 1021.12 526.956 L 1059.46 507.852 C 1060.48 507.335 1060.59 506.478 1060.59 506.134 C 1060.59 505.791 1060.48 504.936 1059.45 504.419 L 1021 485.317 C 1015.45 482.56 1008.57 482.56 1003.05 485.317 L 964.729 504.419 C 963.697 504.936 963.584 505.791 963.584 506.134 C 963.584 506.478 963.701 507.335 964.74 507.85 L 1003.16 526.956 Z"/>
  <linearGradient id="SVGID_00000163766679564198570420000000633659154685578882_" gradientUnits="userSpaceOnUse" x1="75.185" y1="280.5753" x2="129.9633" y2="280.5753" gradientTransform="matrix(1.414268, 0, 0.003556, 1.335785, 316.364276, 201.081391)">
    <stop offset="0" style="stop-color:#E39A65"/>
    <stop offset="1" style="stop-color:#E95F8D"/>
  </linearGradient>
  <path style="fill: url(&quot;#SVGID_00000163766679564198570420000000633659154685578882_&quot;);" d="M 462.487 597.017 C 459.718 597.017 456.952 596.346 454.484 594.998 L 425.876 579.422 C 424.512 578.679 423.695 577.351 423.694 575.87 C 423.687 574.389 424.499 573.061 425.857 572.322 L 454.379 556.744 C 459.303 554.048 465.437 554.048 470.377 556.744 L 498.983 572.322 C 500.347 573.064 501.16 574.389 501.165 575.87 C 501.167 577.356 500.363 578.681 499.003 579.422 L 470.479 594.998 C 468.016 596.343 465.25 597.017 462.487 597.017 Z M 462.38 557.21 C 460.069 557.21 457.76 557.772 455.701 558.896 L 427.176 574.473 C 426.409 574.894 426.327 575.59 426.327 575.87 C 426.327 576.153 426.412 576.851 427.187 577.273 L 455.793 592.85 C 459.924 595.093 465.04 595.093 469.159 592.85 L 497.683 577.273 C 498.451 576.851 498.534 576.153 498.534 575.874 C 498.534 575.592 498.448 574.897 497.676 574.474 L 469.067 558.896 C 467.003 557.772 464.688 557.21 462.38 557.21 Z"/>
  <g transform="matrix(1.61884, 0, 0.003949, 1.381422, 255.754272, 139.247192)" style="">
    <path style="opacity:0.6;fill:#020230;" d="M307.12,347.28l-144.43-83.387c-2.105-1.215-1.841-3.338,0.59-4.742l92.697-53.519 c2.431-1.403,6.108-1.556,8.213-0.34L408.62,288.68c2.105,1.216,1.841,3.339-0.59,4.742l-92.697,53.518 C312.903,348.344,309.225,348.496,307.12,347.28z"/>
    <linearGradient id="SVGID_00000164475921473792641890000005116415087684379815_" gradientUnits="userSpaceOnUse" x1="138.9594" y1="277.0616" x2="431.3178" y2="277.0616">
      <stop offset="0" style="stop-color:#E39A65"/>
      <stop offset="1" style="stop-color:#E95F8D"/>
    </linearGradient>
    <path style="fill:url(#SVGID_00000164475921473792641890000005116415087684379815_);" d="M310.429,362.335 c-1.689,0-3.308-0.351-4.545-1.065h0.001l-164.838-95.169c-1.347-0.776-2.088-1.897-2.088-3.155c0-1.445,1.006-2.855,2.76-3.868 l112.364-65.832c3.082-1.78,7.609-1.951,10.31-0.392l164.837,95.17c1.347,0.776,2.088,1.898,2.088,3.155 c0,1.445-1.006,2.854-2.761,3.867l-112.363,65.832C314.523,361.843,312.428,362.335,310.429,362.335z M259.87,193.657 c-1.688,0-3.482,0.407-4.851,1.196l-112.363,65.832c-1.151,0.665-1.835,1.509-1.835,2.259c0,0.725,0.629,1.24,1.156,1.545 l164.838,95.169c0.001,0,0.001,0,0.001,0c2.104,1.217,5.972,1.039,8.441-0.389l112.364-65.832c1.151-0.665,1.835-1.508,1.835-2.259 c0-0.724-0.629-1.239-1.156-1.544l-164.837-95.17C262.523,193.923,261.231,193.657,259.87,193.657z"/>
    <radialGradient id="SVGID_00000000915628147338383690000001266564625154922371_" cx="300.4459" cy="60.6072" r="223.2961" gradientUnits="userSpaceOnUse">
      <stop offset="0" style="stop-color:#E39A65"/>
      <stop offset="0.4742" style="stop-color:#A92FFB"/>
      <stop offset="0.5947" style="stop-color:#891CFB"/>
      <stop offset="0.7421" style="stop-color:#6507FA"/>
      <stop offset="0.8016" style="stop-color:#0D0C6F"/>
    </radialGradient>
    <path style="fill:url(#SVGID_00000000915628147338383690000001266564625154922371_);" d="M446.989,148.881L303.128,65.822 c-0.989-0.571-2.021-0.689-2.936-0.422v0l-0.001,0.001c-0.004,0.001-0.009,0.003-0.013,0.004l-2.664,0.928l0.938,0.222 c-0.376,0.445-0.679,0.997-0.878,1.645l-32.534,105.631c-0.806,2.619,0.375,5.802,2.637,7.108l143.862,83.059 c0.35,0.202,0.705,0.341,1.058,0.432l-0.356,0.776l2.545-0.894l-0.006-0.002c1.042-0.415,1.901-1.346,2.315-2.691l32.534-105.631 C450.432,153.369,449.251,150.187,446.989,148.881z"/>
    <radialGradient id="SVGID_00000017508808857528085160000014497765457607355794_" cx="163.8732" cy="239.9302" r="244.1723" gradientUnits="userSpaceOnUse">
      <stop offset="0" style="stop-color:#E39A65"/>
      <stop offset="0.4742" style="stop-color:#A92FFB"/>
      <stop offset="0.5679" style="stop-color:#891CFB"/>
      <stop offset="0.6825" style="stop-color:#6507FA"/>
      <stop offset="0.7381" style="stop-color:#0D0C6F"/>
    </radialGradient>
    <path style="fill:url(#SVGID_00000017508808857528085160000014497765457607355794_);" d="M406.388,267.942l0.051,0.061 l-142.098-82.04c-2.09-1.207-5.742-1.055-8.155,0.338l-91.809,53.006l-3.061-1.169l0.86,4.295l0.004-0.002 c0.114,0.646,0.566,1.251,1.378,1.72l143.412,82.799c2.09,1.207,5.742,1.055,8.155-0.338l92.043-53.141 c1.136-0.656,1.789-1.469,1.951-2.273l0.005,0.006l0.878-4.18L406.388,267.942z"/>
    <radialGradient id="SVGID_00000103247162032090181410000016129976034467760317_" cx="186.3305" cy="190.9207" r="218.96" gradientUnits="userSpaceOnUse">
      <stop offset="0" style="stop-color:#E39A65"/>
      <stop offset="0.4742" style="stop-color:#A92FFB"/>
      <stop offset="0.5875" style="stop-color:#891CFB"/>
      <stop offset="0.7262" style="stop-color:#6507FA"/>
      <stop offset="1" style="stop-color:#3919BB"/>
    </radialGradient>
    <path style="fill:url(#SVGID_00000103247162032090181410000016129976034467760317_);" d="M307.12,323.17l-144.43-83.387 c-2.105-1.215-1.841-3.338,0.59-4.742l92.697-53.518c2.431-1.403,6.108-1.556,8.213-0.34L408.62,264.57 c2.105,1.215,1.841,3.339-0.59,4.742l-92.697,53.518C312.903,324.233,309.225,324.386,307.12,323.17z"/>
    <path style="fill:#FFFFFF;" d="M408.03,268.187l-92.697,53.518c-2.431,1.404-6.108,1.556-8.213,0.341L162.69,238.659 c-0.717-0.414-1.138-0.937-1.313-1.498c-0.279,0.968,0.129,1.939,1.313,2.622l144.431,83.387c2.105,1.215,5.782,1.063,8.213-0.34 l92.697-53.518c1.603-0.925,2.242-2.16,1.903-3.244C409.716,266.821,409.094,267.573,408.03,268.187z"/>
    <g style="opacity:0.4;">
      <path style="fill:#06033E;" d="M231.581,226.251l-4.876-2.815c-0.392-0.226-0.342-0.621,0.11-0.882l5.755-3.323 c0.452-0.261,1.136-0.289,1.528-0.063l4.876,2.815c0.392,0.226,0.342,0.621-0.11,0.882l-5.756,3.323 C232.657,226.449,231.973,226.477,231.581,226.251z"/>
      <path style="fill:#06033E;" d="M239.111,230.599l-4.876-2.815c-0.392-0.226-0.342-0.621,0.11-0.882l5.756-3.323 c0.452-0.261,1.136-0.289,1.527-0.063l4.876,2.815c0.392,0.226,0.342,0.621-0.11,0.882l-5.755,3.323 C240.187,230.796,239.503,230.825,239.111,230.599z"/>
      <path style="fill:#06033E;" d="M246.642,234.946l-4.876-2.815c-0.391-0.226-0.342-0.621,0.11-0.882l5.756-3.323 c0.452-0.261,1.136-0.289,1.527-0.063l4.876,2.815c0.391,0.226,0.342,0.621-0.11,0.882l-5.756,3.323 C247.717,235.144,247.033,235.172,246.642,234.946z"/>
      <path style="fill:#06033E;" d="M257.057,231.356l-4.876-2.815c-0.392-0.226-0.342-0.621,0.11-0.882l4.831-2.789 c0.452-0.261,1.136-0.289,1.527-0.063l4.876,2.815c0.391,0.226,0.342,0.621-0.11,0.882l-4.831,2.789 C258.132,231.554,257.448,231.582,257.057,231.356z"/>
      <path style="fill:#06033E;" d="M264.587,235.704l-4.876-2.815c-0.392-0.226-0.342-0.621,0.11-0.882l4.832-2.789 c0.452-0.261,1.136-0.289,1.527-0.063l4.876,2.815c0.392,0.226,0.342,0.621-0.11,0.882l-4.832,2.789 C265.662,235.901,264.978,235.93,264.587,235.704z"/>
      <path style="fill:#06033E;" d="M272.117,240.051l-4.876-2.815c-0.392-0.226-0.342-0.621,0.11-0.882l4.832-2.789 c0.452-0.261,1.136-0.289,1.527-0.063l4.876,2.815c0.392,0.226,0.342,0.621-0.11,0.882l-4.832,2.789 C273.193,240.249,272.509,240.277,272.117,240.051z"/>
      <path style="fill:#06033E;" d="M279.647,244.399l-4.876-2.815c-0.392-0.226-0.342-0.621,0.11-0.882l4.831-2.789 c0.452-0.261,1.136-0.289,1.527-0.063l4.876,2.815c0.392,0.226,0.342,0.621-0.11,0.882l-4.831,2.789 C280.723,244.596,280.039,244.625,279.647,244.399z"/>
      <path style="fill:#06033E;" d="M287.178,248.746l-4.876-2.815c-0.392-0.226-0.342-0.621,0.11-0.882l4.832-2.789 c0.452-0.261,1.136-0.289,1.527-0.063l4.876,2.815c0.391,0.226,0.342,0.621-0.11,0.882l-4.831,2.789 C288.253,248.944,287.569,248.972,287.178,248.746z"/>
      <path style="fill:#06033E;" d="M294.708,253.094l-4.876-2.815c-0.392-0.226-0.342-0.621,0.11-0.882l4.831-2.789 c0.452-0.261,1.136-0.289,1.527-0.063l4.876,2.815c0.391,0.226,0.342,0.621-0.11,0.882l-4.831,2.789 C295.783,253.292,295.099,253.32,294.708,253.094z"/>
      <path style="fill:#06033E;" d="M302.238,257.442l-4.876-2.815c-0.392-0.226-0.342-0.621,0.11-0.882l4.831-2.789 c0.452-0.261,1.136-0.289,1.527-0.063l4.876,2.815c0.391,0.226,0.342,0.621-0.11,0.882l-4.832,2.789 C303.314,257.639,302.63,257.668,302.238,257.442z"/>
      <path style="fill:#06033E;" d="M309.768,261.789l-4.876-2.815c-0.391-0.226-0.342-0.621,0.11-0.882l4.832-2.789 c0.452-0.261,1.136-0.289,1.527-0.063l4.876,2.815c0.392,0.226,0.342,0.621-0.11,0.882l-4.832,2.789 C310.844,261.987,310.16,262.015,309.768,261.789z"/>
      <path style="fill:#06033E;" d="M317.299,266.137l-4.876-2.815c-0.391-0.226-0.342-0.621,0.11-0.882l4.832-2.789 c0.452-0.261,1.136-0.289,1.527-0.063l4.876,2.815c0.392,0.226,0.342,0.621-0.11,0.882l-4.831,2.789 C318.374,266.335,317.69,266.363,317.299,266.137z"/>
      <path style="fill:#06033E;" d="M324.829,270.484l-4.876-2.815c-0.392-0.226-0.342-0.621,0.11-0.882l4.831-2.789 c0.452-0.261,1.136-0.289,1.527-0.063l4.876,2.815c0.391,0.226,0.342,0.621-0.11,0.882l-4.832,2.79 C325.904,270.682,325.22,270.71,324.829,270.484z"/>
      <path style="fill:#06033E;" d="M268.152,229.298l-4.876-2.815c-0.392-0.226-0.342-0.621,0.11-0.882l4.831-2.789 c0.452-0.261,1.136-0.289,1.528-0.063l4.876,2.815c0.391,0.226,0.342,0.621-0.11,0.882l-4.831,2.789 C269.227,229.495,268.543,229.524,268.152,229.298z"/>
      <path style="fill:#06033E;" d="M260.509,224.885l-4.876-2.815c-0.391-0.226-0.342-0.621,0.11-0.882l4.831-2.79 c0.452-0.261,1.136-0.289,1.528-0.063l4.876,2.815c0.392,0.226,0.342,0.621-0.11,0.882l-4.831,2.789 C261.585,225.083,260.901,225.111,260.509,224.885z"/>
      <path style="fill:#06033E;" d="M252.854,220.465l-10.502-6.063c-0.391-0.226-0.342-0.621,0.11-0.882l4.831-2.789 c0.452-0.261,1.136-0.289,1.527-0.063l10.502,6.063c0.392,0.226,0.342,0.621-0.11,0.882l-4.831,2.789 C253.93,220.663,253.246,220.691,252.854,220.465z"/>
      <path style="fill:#06033E;" d="M258.205,215.09l-8.523-4.921c-0.392-0.226-0.342-0.621,0.11-0.882l4.831-2.79 c0.452-0.261,1.136-0.289,1.527-0.063l8.523,4.921c0.391,0.226,0.342,0.621-0.11,0.882l-4.831,2.789 C259.28,215.288,258.596,215.317,258.205,215.09z"/>
      <path style="fill:#06033E;" d="M275.682,233.645l-4.876-2.815c-0.392-0.226-0.342-0.621,0.11-0.882l4.831-2.79 c0.452-0.261,1.136-0.289,1.527-0.063l4.876,2.815c0.391,0.226,0.342,0.621-0.11,0.882l-4.831,2.789 C276.758,233.843,276.074,233.871,275.682,233.645z"/>
      <path style="fill:#06033E;" d="M283.212,237.993l-4.876-2.815c-0.391-0.226-0.342-0.621,0.11-0.882l4.831-2.79 c0.452-0.261,1.136-0.289,1.527-0.063l4.876,2.815c0.392,0.226,0.342,0.621-0.11,0.882l-4.832,2.789 C284.288,238.191,283.604,238.219,283.212,237.993z"/>
      <path style="fill:#06033E;" d="M290.743,242.34l-4.876-2.815c-0.392-0.226-0.342-0.621,0.11-0.882l4.832-2.789 c0.452-0.261,1.136-0.289,1.527-0.063l4.876,2.815c0.392,0.226,0.342,0.621-0.11,0.882l-4.832,2.789 C291.818,242.538,291.134,242.566,290.743,242.34z"/>
      <path style="fill:#06033E;" d="M298.273,246.688l-4.876-2.815c-0.392-0.226-0.342-0.621,0.11-0.882l4.832-2.789 c0.452-0.261,1.136-0.289,1.527-0.063l4.876,2.815c0.391,0.226,0.342,0.621-0.11,0.882l-4.831,2.789 C299.348,246.886,298.664,246.914,298.273,246.688z"/>
      <path style="fill:#06033E;" d="M305.803,251.036l-4.876-2.815c-0.391-0.226-0.342-0.621,0.11-0.882l4.831-2.789 c0.452-0.261,1.136-0.289,1.527-0.063l4.876,2.815c0.391,0.226,0.342,0.621-0.11,0.882l-4.832,2.789 C306.879,251.233,306.195,251.262,305.803,251.036z"/>
      <path style="fill:#06033E;" d="M313.333,255.383l-4.876-2.815c-0.392-0.226-0.342-0.621,0.11-0.882l4.832-2.789 c0.452-0.261,1.136-0.289,1.527-0.063l4.876,2.815c0.392,0.226,0.342,0.621-0.11,0.882l-4.832,2.789 C314.409,255.581,313.725,255.609,313.333,255.383z"/>
      <path style="fill:#06033E;" d="M320.864,259.731l-4.876-2.815c-0.392-0.226-0.342-0.621,0.11-0.882l4.832-2.789 c0.452-0.261,1.136-0.289,1.527-0.063l4.876,2.815c0.392,0.226,0.342,0.621-0.11,0.882l-4.831,2.789 C321.939,259.928,321.255,259.957,320.864,259.731z"/>
      <path style="fill:#06033E;" d="M328.394,264.078l-4.876-2.815c-0.392-0.226-0.342-0.621,0.11-0.882l4.832-2.789 c0.452-0.261,1.136-0.289,1.527-0.063l4.876,2.815c0.392,0.226,0.342,0.621-0.11,0.882l-4.831,2.789 C329.47,264.276,328.786,264.305,328.394,264.078z"/>
      <path style="fill:#06033E;" d="M335.924,268.426l-4.876-2.815c-0.391-0.226-0.342-0.621,0.11-0.882l4.831-2.789 c0.452-0.261,1.136-0.289,1.528-0.063l4.876,2.815c0.391,0.226,0.342,0.621-0.11,0.882l-4.831,2.789 C337,268.624,336.316,268.652,335.924,268.426z"/>
      <path style="fill:#06033E;" d="M349.311,276.155l-10.639-6.143c-0.391-0.226-0.342-0.621,0.11-0.882l4.832-2.79 c0.452-0.261,1.136-0.289,1.527-0.063l10.639,6.143c0.392,0.226,0.342,0.621-0.11,0.882l-4.831,2.789 C350.387,276.353,349.703,276.381,349.311,276.155z"/>
      <path style="fill:#06033E;" d="M363.972,267.691l-8.98-5.185c-0.392-0.226-0.342-0.621,0.11-0.882l4.832-2.789 c0.452-0.261,1.136-0.289,1.527-0.063l8.98,5.185c0.391,0.226,0.342,0.621-0.11,0.882l-4.832,2.789 C365.047,267.889,364.363,267.917,363.972,267.691z"/>
      <path style="fill:#06033E;" d="M288.869,232.795l-4.876-2.815c-0.392-0.226-0.342-0.621,0.11-0.882l4.831-2.789 c0.452-0.261,1.136-0.289,1.528-0.063l4.876,2.815c0.392,0.226,0.342,0.621-0.11,0.882l-4.831,2.789 C289.945,232.992,289.261,233.021,288.869,232.795z"/>
      <path style="fill:#06033E;" d="M281.152,228.339l-4.876-2.815c-0.392-0.226-0.342-0.621,0.11-0.882l4.832-2.789 c0.452-0.261,1.136-0.289,1.527-0.063l4.876,2.815c0.392,0.226,0.342,0.621-0.11,0.882l-4.832,2.789 C282.227,228.536,281.543,228.565,281.152,228.339z"/>
      <path style="fill:#06033E;" d="M273.434,223.883l-4.876-2.815c-0.392-0.226-0.342-0.621,0.11-0.882l4.832-2.789 c0.452-0.261,1.136-0.289,1.527-0.063l4.876,2.815c0.392,0.226,0.342,0.621-0.11,0.882l-4.831,2.789 C274.509,224.081,273.826,224.109,273.434,223.883z"/>
      <path style="fill:#06033E;" d="M265.717,219.427l-4.876-2.815c-0.391-0.226-0.342-0.621,0.11-0.882l4.831-2.789 c0.452-0.261,1.136-0.289,1.527-0.063l4.876,2.815c0.391,0.226,0.342,0.621-0.11,0.882l-4.832,2.789 C266.792,219.625,266.108,219.653,265.717,219.427z"/>
      <path style="fill:#06033E;" d="M296.4,237.142l-4.876-2.815c-0.392-0.226-0.342-0.621,0.11-0.882l4.832-2.79 c0.452-0.261,1.136-0.289,1.527-0.063l4.876,2.815c0.392,0.226,0.342,0.621-0.11,0.882l-4.832,2.79 C297.475,237.34,296.791,237.368,296.4,237.142z"/>
      <path style="fill:#06033E;" d="M303.93,241.49l-4.876-2.815c-0.392-0.226-0.342-0.621,0.11-0.882l4.831-2.789 c0.452-0.261,1.136-0.289,1.527-0.063l4.876,2.815c0.392,0.226,0.342,0.621-0.11,0.882l-4.832,2.79 C305.005,241.688,304.321,241.716,303.93,241.49z"/>
      <path style="fill:#06033E;" d="M311.46,245.837l-4.876-2.815c-0.392-0.226-0.342-0.621,0.11-0.882l4.831-2.79 c0.452-0.261,1.136-0.289,1.528-0.063l4.876,2.815c0.391,0.226,0.342,0.621-0.11,0.882l-4.831,2.789 C312.535,246.035,311.852,246.063,311.46,245.837z"/>
      <path style="fill:#06033E;" d="M318.99,250.185l-4.876-2.815c-0.392-0.226-0.342-0.621,0.11-0.882l4.831-2.79 c0.452-0.261,1.136-0.289,1.527-0.063l4.876,2.815c0.392,0.226,0.342,0.621-0.11,0.882l-4.831,2.79 C320.066,250.383,319.382,250.411,318.99,250.185z"/>
      <path style="fill:#06033E;" d="M326.521,254.533l-4.876-2.815c-0.392-0.226-0.342-0.621,0.11-0.882l4.831-2.789 c0.452-0.261,1.136-0.289,1.527-0.063l4.876,2.815c0.392,0.226,0.342,0.621-0.11,0.882l-4.832,2.79 C327.596,254.73,326.912,254.759,326.521,254.533z"/>
      <path style="fill:#06033E;" d="M334.051,258.88l-4.876-2.815c-0.392-0.226-0.342-0.621,0.11-0.882l4.832-2.79 c0.452-0.261,1.136-0.289,1.527-0.063l4.876,2.815c0.392,0.226,0.342,0.621-0.11,0.882l-4.832,2.789 C335.126,259.078,334.442,259.106,334.051,258.88z"/>
      <path style="fill:#06033E;" d="M341.581,263.228l-4.876-2.815c-0.391-0.226-0.342-0.621,0.11-0.882l4.832-2.789 c0.452-0.261,1.136-0.289,1.527-0.063l4.876,2.815c0.391,0.226,0.342,0.621-0.11,0.882l-4.831,2.789 C342.657,263.426,341.973,263.454,341.581,263.228z"/>
      <path style="fill:#06033E;" d="M349.112,267.575l-4.876-2.815c-0.391-0.226-0.342-0.621,0.11-0.882l4.832-2.789 c0.452-0.261,1.136-0.289,1.527-0.063l4.876,2.815c0.391,0.226,0.342,0.621-0.11,0.882l-4.832,2.789 C350.187,267.773,349.503,267.801,349.112,267.575z"/>
      <path style="fill:#06033E;" d="M356.642,271.923l-4.876-2.815c-0.392-0.226-0.342-0.621,0.11-0.882l4.831-2.789 c0.452-0.261,1.136-0.289,1.527-0.063l4.876,2.815c0.392,0.226,0.343,0.621-0.11,0.882l-4.832,2.79 C357.717,272.121,357.033,272.149,356.642,271.923z"/>
      <path style="fill:#06033E;" d="M284.904,222.041l-4.876-2.815c-0.392-0.226-0.342-0.621,0.11-0.882l4.831-2.789 c0.452-0.261,1.136-0.289,1.528-0.063l4.876,2.815c0.392,0.226,0.342,0.621-0.11,0.882l-4.831,2.789 C285.979,222.239,285.296,222.267,284.904,222.041z"/>
      <path style="fill:#06033E;" d="M277.411,217.715l-4.876-2.815c-0.391-0.226-0.342-0.621,0.11-0.882l4.831-2.79 c0.452-0.261,1.136-0.289,1.528-0.063l4.876,2.815c0.392,0.226,0.342,0.621-0.11,0.882l-4.831,2.789 C278.487,217.913,277.803,217.941,277.411,217.715z"/>
      <path style="fill:#06033E;" d="M269.919,213.389l-4.876-2.815c-0.391-0.226-0.342-0.621,0.11-0.882l4.831-2.79 c0.452-0.261,1.136-0.289,1.527-0.063l4.876,2.815c0.391,0.226,0.342,0.621-0.11,0.882l-4.831,2.79 C270.994,213.587,270.31,213.615,269.919,213.389z"/>
      <path style="fill:#06033E;" d="M262.426,209.063l-4.876-2.815c-0.391-0.226-0.342-0.621,0.11-0.882l4.831-2.789 c0.452-0.261,1.136-0.289,1.527-0.063l4.876,2.815c0.392,0.226,0.343,0.621-0.11,0.882L263.953,209 C263.501,209.261,262.817,209.289,262.426,209.063z"/>
      <path style="fill:#06033E;" d="M270.131,204.615l-4.876-2.815c-0.392-0.226-0.342-0.621,0.11-0.882l1.597-0.922 c0.452-0.261,1.136-0.289,1.527-0.063l4.876,2.815c0.392,0.226,0.342,0.621-0.11,0.882l-1.597,0.922 C271.206,204.812,270.522,204.841,270.131,204.615z"/>
      <path style="fill:#06033E;" d="M279.909,210.26l-4.876-2.815c-0.391-0.226-0.342-0.621,0.11-0.882l1.597-0.922 c0.452-0.261,1.136-0.289,1.527-0.063l4.876,2.815c0.392,0.226,0.342,0.621-0.11,0.882l-1.597,0.922 C280.984,210.458,280.3,210.486,279.909,210.26z"/>
      <path style="fill:#06033E;" d="M287.37,214.568l-4.876-2.815c-0.392-0.226-0.342-0.621,0.11-0.882l1.597-0.922 c0.452-0.261,1.136-0.289,1.528-0.063l4.876,2.815c0.391,0.226,0.342,0.621-0.11,0.882l-1.597,0.922 C288.446,214.766,287.762,214.794,287.37,214.568z"/>
      <path style="fill:#06033E;" d="M294.832,218.876l-4.876-2.815c-0.391-0.226-0.342-0.621,0.11-0.882l1.597-0.922 c0.452-0.261,1.136-0.289,1.527-0.063l4.876,2.815c0.392,0.226,0.342,0.621-0.11,0.882l-1.597,0.922 C295.907,219.074,295.223,219.102,294.832,218.876z"/>
      <path style="fill:#06033E;" d="M302.293,223.184l-4.876-2.815c-0.391-0.226-0.342-0.621,0.11-0.882l1.597-0.922 c0.452-0.261,1.136-0.289,1.527-0.063l4.876,2.815c0.392,0.226,0.342,0.621-0.11,0.882l-1.597,0.922 C303.369,223.382,302.685,223.41,302.293,223.184z"/>
      <path style="fill:#06033E;" d="M343.95,247.235l-4.876-2.815c-0.391-0.226-0.342-0.621,0.11-0.882l1.597-0.922 c0.452-0.261,1.136-0.289,1.527-0.063l4.876,2.815c0.392,0.226,0.342,0.621-0.11,0.882l-1.597,0.922 C345.026,247.432,344.342,247.461,343.95,247.235z"/>
      <path style="fill:#06033E;" d="M351.412,251.542l-4.876-2.815c-0.392-0.226-0.342-0.621,0.11-0.882l1.597-0.922 c0.452-0.261,1.136-0.289,1.528-0.063l4.876,2.815c0.392,0.226,0.342,0.621-0.11,0.882l-1.597,0.922 C352.487,251.74,351.803,251.769,351.412,251.542z"/>
      <path style="fill:#06033E;" d="M358.874,255.85l-4.876-2.815c-0.392-0.226-0.342-0.621,0.11-0.882l1.597-0.922 c0.452-0.261,1.136-0.289,1.527-0.063l4.876,2.815c0.391,0.226,0.342,0.621-0.11,0.882l-1.597,0.922 C359.949,256.048,359.265,256.077,358.874,255.85z"/>
      <path style="fill:#06033E;" d="M366.335,260.158l-4.876-2.815c-0.392-0.226-0.342-0.621,0.11-0.882l1.597-0.922 c0.452-0.261,1.136-0.289,1.527-0.063l4.876,2.815c0.392,0.226,0.342,0.621-0.11,0.882l-1.597,0.922 C367.41,260.356,366.727,260.384,366.335,260.158z"/>
      <path style="fill:#06033E;" d="M292.434,226.389l-4.876-2.815c-0.391-0.226-0.342-0.621,0.11-0.882l4.831-2.789 c0.452-0.261,1.136-0.289,1.527-0.063l4.876,2.815c0.391,0.226,0.342,0.621-0.11,0.882l-4.831,2.789 C293.51,226.586,292.826,226.615,292.434,226.389z"/>
      <path style="fill:#06033E;" d="M299.965,230.736l-4.876-2.815c-0.392-0.226-0.342-0.621,0.11-0.882l4.831-2.789 c0.452-0.261,1.136-0.289,1.527-0.063l4.876,2.815c0.392,0.226,0.342,0.621-0.11,0.882l-4.831,2.789 C301.04,230.934,300.356,230.962,299.965,230.736z"/>
      <path style="fill:#06033E;" d="M307.495,235.084l-4.876-2.815c-0.392-0.226-0.342-0.621,0.11-0.882l4.831-2.789 c0.452-0.261,1.136-0.289,1.527-0.063l4.876,2.815c0.392,0.226,0.342,0.621-0.11,0.882l-4.832,2.79 C308.57,235.282,307.887,235.31,307.495,235.084z"/>
      <path style="fill:#06033E;" d="M315.025,239.432l-4.876-2.815c-0.392-0.226-0.342-0.621,0.11-0.882l4.832-2.789 c0.452-0.261,1.136-0.289,1.527-0.063l4.876,2.815c0.392,0.226,0.342,0.621-0.11,0.882l-4.831,2.789 C316.101,239.629,315.417,239.658,315.025,239.432z"/>
      <path style="fill:#06033E;" d="M322.556,243.779l-4.876-2.815c-0.391-0.226-0.342-0.621,0.11-0.882l4.832-2.789 c0.452-0.261,1.136-0.289,1.527-0.063l4.876,2.815c0.391,0.226,0.342,0.621-0.11,0.882l-4.831,2.79 C323.631,243.977,322.947,244.005,322.556,243.779z"/>
      <path style="fill:#06033E;" d="M330.086,248.127l-4.876-2.815c-0.392-0.226-0.342-0.621,0.11-0.882l4.832-2.789 c0.452-0.261,1.136-0.289,1.527-0.063l4.876,2.815c0.391,0.226,0.342,0.621-0.11,0.882l-4.832,2.79 C331.161,248.324,330.477,248.353,330.086,248.127z"/>
      <path style="fill:#06033E;" d="M337.616,252.474l-4.876-2.815c-0.392-0.226-0.342-0.621,0.11-0.882l4.832-2.789 c0.452-0.261,1.136-0.289,1.527-0.063l4.876,2.815c0.392,0.226,0.342,0.621-0.11,0.882l-4.832,2.789 C338.691,252.672,338.008,252.7,337.616,252.474z"/>
      <path style="fill:#06033E;" d="M345.146,256.822l-4.876-2.815c-0.392-0.226-0.342-0.621,0.11-0.882l4.831-2.789 c0.452-0.261,1.136-0.289,1.527-0.063l4.876,2.815c0.392,0.226,0.342,0.621-0.11,0.882l-4.831,2.79 C346.222,257.02,345.538,257.048,345.146,256.822z"/>
      <path style="fill:#06033E;" d="M352.677,261.169l-4.876-2.815c-0.391-0.226-0.342-0.621,0.11-0.882l4.832-2.789 c0.452-0.261,1.136-0.289,1.527-0.063l4.876,2.815c0.392,0.226,0.342,0.621-0.11,0.882l-4.831,2.789 C353.752,261.367,353.068,261.396,352.677,261.169z"/>
      <path style="fill:#06033E;" d="M249.383,226.925l-14.361-8.291c-0.391-0.226-0.342-0.621,0.11-0.882l4.831-2.789 c0.452-0.261,1.136-0.289,1.528-0.063l14.361,8.291c0.391,0.226,0.342,0.621-0.11,0.882l-4.832,2.789 C250.458,227.123,249.774,227.152,249.383,226.925z"/>
      <path style="fill:#06033E;" d="M341.894,280.337l-14.361-8.291c-0.391-0.226-0.342-0.621,0.11-0.882l4.832-2.789 c0.452-0.261,1.136-0.289,1.527-0.063l14.361,8.291c0.392,0.226,0.342,0.621-0.11,0.882l-4.832,2.789 C342.969,280.534,342.285,280.563,341.894,280.337z"/>
      <path style="fill:#06033E;" d="M311.779,272.553l-4.876-2.815c-0.392-0.226-0.342-0.621,0.11-0.882l5.756-3.323 c0.452-0.261,1.136-0.289,1.527-0.063l4.876,2.815c0.391,0.226,0.342,0.621-0.11,0.882l-5.756,3.323 C312.855,272.751,312.171,272.78,311.779,272.553z"/>
      <path style="fill:#06033E;" d="M257.094,240.981l-7.798-4.502c-0.391-0.226-0.342-0.621,0.11-0.882l5.756-3.323 c0.452-0.261,1.136-0.289,1.527-0.063l7.798,4.502c0.392,0.226,0.342,0.621-0.11,0.882l-5.756,3.323 C258.17,241.179,257.486,241.207,257.094,240.981z"/>
      <path style="fill:#06033E;" d="M304.524,268.365l-7.798-4.502c-0.392-0.226-0.342-0.621,0.11-0.882l5.756-3.323 c0.452-0.261,1.136-0.289,1.527-0.063l7.798,4.502c0.391,0.226,0.342,0.621-0.11,0.882l-5.755,3.323 C305.599,268.562,304.915,268.591,304.524,268.365z"/>
      <path style="fill:#06033E;" d="M267.959,247.254l-7.798-4.502c-0.391-0.226-0.342-0.621,0.11-0.882l5.756-3.323 c0.452-0.261,1.136-0.289,1.527-0.063l7.798,4.502c0.392,0.226,0.342,0.621-0.11,0.882l-5.756,3.323 C269.034,247.451,268.35,247.48,267.959,247.254z"/>
      <path style="fill:#06033E;" d="M267.606,238.514l33.905,19.575c0.421,0.243,0.421,0.637,0,0.88l-5.869,3.388 c-0.421,0.243-1.103,0.243-1.524,0l-33.905-19.575L267.606,238.514z"/>
      <path style="fill:#06033E;" d="M332.825,280.436l5.432,3.136c0.321,0.185,0.281,0.509-0.09,0.723l-2.355,1.359 c-0.37,0.214-0.931,0.237-1.252,0.052l-5.431-3.136c-0.321-0.185-0.281-0.509,0.09-0.723l2.354-1.359 C331.944,280.274,332.504,280.251,332.825,280.436z"/>
      <path style="fill:#06033E;" d="M325.232,276.052l5.432,3.136c0.321,0.185,0.281,0.509-0.09,0.723l-2.354,1.359 c-0.371,0.214-0.931,0.237-1.252,0.052l-5.431-3.136c-0.321-0.185-0.281-0.509,0.09-0.723l2.354-1.359 C324.351,275.891,324.911,275.867,325.232,276.052z"/>
      <path style="fill:#06033E;" d="M317.702,271.705l5.432,3.136c0.321,0.185,0.281,0.509-0.09,0.723l-2.354,1.359 c-0.371,0.214-0.931,0.237-1.252,0.052l-5.432-3.136c-0.321-0.185-0.281-0.509,0.09-0.723l2.354-1.359 C316.821,271.543,317.381,271.52,317.702,271.705z"/>
      <path style="fill:#06033E;" d="M329.391,273.652l5.431,3.136c0.321,0.185,0.281,0.509-0.09,0.723l-2.355,1.359 c-0.37,0.214-0.931,0.237-1.252,0.052l-5.432-3.136c-0.321-0.185-0.281-0.509,0.09-0.723l2.355-1.359 C328.509,273.49,329.07,273.466,329.391,273.652z"/>
    </g>
    <g style="opacity:0.4;">
      <path style="fill:#06033E;" d="M231.581,226.251l-4.876-2.815c-0.392-0.226-0.342-0.621,0.11-0.882l5.755-3.323 c0.452-0.261,1.136-0.289,1.528-0.063l4.876,2.815c0.392,0.226,0.342,0.621-0.11,0.882l-5.756,3.323 C232.657,226.449,231.973,226.477,231.581,226.251z"/>
      <path style="fill:#06033E;" d="M239.111,230.599l-4.876-2.815c-0.392-0.226-0.342-0.621,0.11-0.882l5.756-3.323 c0.452-0.261,1.136-0.289,1.527-0.063l4.876,2.815c0.392,0.226,0.342,0.621-0.11,0.882l-5.755,3.323 C240.187,230.796,239.503,230.825,239.111,230.599z"/>
      <path style="fill:#06033E;" d="M246.642,234.946l-4.876-2.815c-0.391-0.226-0.342-0.621,0.11-0.882l5.756-3.323 c0.452-0.261,1.136-0.289,1.527-0.063l4.876,2.815c0.391,0.226,0.342,0.621-0.11,0.882l-5.756,3.323 C247.717,235.144,247.033,235.172,246.642,234.946z"/>
      <path style="fill:#06033E;" d="M257.057,231.356l-4.876-2.815c-0.392-0.226-0.342-0.621,0.11-0.882l4.831-2.789 c0.452-0.261,1.136-0.289,1.527-0.063l4.876,2.815c0.391,0.226,0.342,0.621-0.11,0.882l-4.831,2.789 C258.132,231.554,257.448,231.582,257.057,231.356z"/>
      <path style="fill:#06033E;" d="M264.587,235.704l-4.876-2.815c-0.392-0.226-0.342-0.621,0.11-0.882l4.832-2.789 c0.452-0.261,1.136-0.289,1.527-0.063l4.876,2.815c0.392,0.226,0.342,0.621-0.11,0.882l-4.832,2.789 C265.662,235.901,264.978,235.93,264.587,235.704z"/>
      <path style="fill:#06033E;" d="M272.117,240.051l-4.876-2.815c-0.392-0.226-0.342-0.621,0.11-0.882l4.832-2.789 c0.452-0.261,1.136-0.289,1.527-0.063l4.876,2.815c0.392,0.226,0.342,0.621-0.11,0.882l-4.832,2.789 C273.193,240.249,272.509,240.277,272.117,240.051z"/>
      <path style="fill:#06033E;" d="M279.647,244.399l-4.876-2.815c-0.392-0.226-0.342-0.621,0.11-0.882l4.831-2.789 c0.452-0.261,1.136-0.289,1.527-0.063l4.876,2.815c0.392,0.226,0.342,0.621-0.11,0.882l-4.831,2.789 C280.723,244.596,280.039,244.625,279.647,244.399z"/>
      <path style="fill:#06033E;" d="M287.178,248.746l-4.876-2.815c-0.392-0.226-0.342-0.621,0.11-0.882l4.832-2.789 c0.452-0.261,1.136-0.289,1.527-0.063l4.876,2.815c0.391,0.226,0.342,0.621-0.11,0.882l-4.831,2.789 C288.253,248.944,287.569,248.972,287.178,248.746z"/>
      <path style="fill:#06033E;" d="M294.708,253.094l-4.876-2.815c-0.392-0.226-0.342-0.621,0.11-0.882l4.831-2.789 c0.452-0.261,1.136-0.289,1.527-0.063l4.876,2.815c0.391,0.226,0.342,0.621-0.11,0.882l-4.831,2.789 C295.783,253.292,295.099,253.32,294.708,253.094z"/>
      <path style="fill:#06033E;" d="M302.238,257.442l-4.876-2.815c-0.392-0.226-0.342-0.621,0.11-0.882l4.831-2.789 c0.452-0.261,1.136-0.289,1.527-0.063l4.876,2.815c0.391,0.226,0.342,0.621-0.11,0.882l-4.832,2.789 C303.314,257.639,302.63,257.668,302.238,257.442z"/>
      <path style="fill:#06033E;" d="M309.768,261.789l-4.876-2.815c-0.391-0.226-0.342-0.621,0.11-0.882l4.832-2.789 c0.452-0.261,1.136-0.289,1.527-0.063l4.876,2.815c0.392,0.226,0.342,0.621-0.11,0.882l-4.832,2.789 C310.844,261.987,310.16,262.015,309.768,261.789z"/>
      <path style="fill:#06033E;" d="M317.299,266.137l-4.876-2.815c-0.391-0.226-0.342-0.621,0.11-0.882l4.832-2.789 c0.452-0.261,1.136-0.289,1.527-0.063l4.876,2.815c0.392,0.226,0.342,0.621-0.11,0.882l-4.831,2.789 C318.374,266.335,317.69,266.363,317.299,266.137z"/>
      <path style="fill:#06033E;" d="M324.829,270.484l-4.876-2.815c-0.392-0.226-0.342-0.621,0.11-0.882l4.831-2.789 c0.452-0.261,1.136-0.289,1.527-0.063l4.876,2.815c0.391,0.226,0.342,0.621-0.11,0.882l-4.832,2.79 C325.904,270.682,325.22,270.71,324.829,270.484z"/>
      <path style="fill:#06033E;" d="M268.152,229.298l-4.876-2.815c-0.392-0.226-0.342-0.621,0.11-0.882l4.831-2.789 c0.452-0.261,1.136-0.289,1.528-0.063l4.876,2.815c0.391,0.226,0.342,0.621-0.11,0.882l-4.831,2.789 C269.227,229.495,268.543,229.524,268.152,229.298z"/>
      <path style="fill:#06033E;" d="M260.509,224.885l-4.876-2.815c-0.391-0.226-0.342-0.621,0.11-0.882l4.831-2.79 c0.452-0.261,1.136-0.289,1.528-0.063l4.876,2.815c0.392,0.226,0.342,0.621-0.11,0.882l-4.831,2.789 C261.585,225.083,260.901,225.111,260.509,224.885z"/>
      <path style="fill:#06033E;" d="M252.854,220.465l-10.502-6.063c-0.391-0.226-0.342-0.621,0.11-0.882l4.831-2.789 c0.452-0.261,1.136-0.289,1.527-0.063l10.502,6.063c0.392,0.226,0.342,0.621-0.11,0.882l-4.831,2.789 C253.93,220.663,253.246,220.691,252.854,220.465z"/>
      <path style="fill:#06033E;" d="M258.205,215.09l-8.523-4.921c-0.392-0.226-0.342-0.621,0.11-0.882l4.831-2.79 c0.452-0.261,1.136-0.289,1.527-0.063l8.523,4.921c0.391,0.226,0.342,0.621-0.11,0.882l-4.831,2.789 C259.28,215.288,258.596,215.317,258.205,215.09z"/>
      <path style="fill:#06033E;" d="M275.682,233.645l-4.876-2.815c-0.392-0.226-0.342-0.621,0.11-0.882l4.831-2.79 c0.452-0.261,1.136-0.289,1.527-0.063l4.876,2.815c0.391,0.226,0.342,0.621-0.11,0.882l-4.831,2.789 C276.758,233.843,276.074,233.871,275.682,233.645z"/>
      <path style="fill:#06033E;" d="M283.212,237.993l-4.876-2.815c-0.391-0.226-0.342-0.621,0.11-0.882l4.831-2.79 c0.452-0.261,1.136-0.289,1.527-0.063l4.876,2.815c0.392,0.226,0.342,0.621-0.11,0.882l-4.832,2.789 C284.288,238.191,283.604,238.219,283.212,237.993z"/>
      <path style="fill:#06033E;" d="M290.743,242.34l-4.876-2.815c-0.392-0.226-0.342-0.621,0.11-0.882l4.832-2.789 c0.452-0.261,1.136-0.289,1.527-0.063l4.876,2.815c0.392,0.226,0.342,0.621-0.11,0.882l-4.832,2.789 C291.818,242.538,291.134,242.566,290.743,242.34z"/>
      <path style="fill:#06033E;" d="M298.273,246.688l-4.876-2.815c-0.392-0.226-0.342-0.621,0.11-0.882l4.832-2.789 c0.452-0.261,1.136-0.289,1.527-0.063l4.876,2.815c0.391,0.226,0.342,0.621-0.11,0.882l-4.831,2.789 C299.348,246.886,298.664,246.914,298.273,246.688z"/>
      <path style="fill:#06033E;" d="M305.803,251.036l-4.876-2.815c-0.391-0.226-0.342-0.621,0.11-0.882l4.831-2.789 c0.452-0.261,1.136-0.289,1.527-0.063l4.876,2.815c0.391,0.226,0.342,0.621-0.11,0.882l-4.832,2.789 C306.879,251.233,306.195,251.262,305.803,251.036z"/>
      <path style="fill:#06033E;" d="M313.333,255.383l-4.876-2.815c-0.392-0.226-0.342-0.621,0.11-0.882l4.832-2.789 c0.452-0.261,1.136-0.289,1.527-0.063l4.876,2.815c0.392,0.226,0.342,0.621-0.11,0.882l-4.832,2.789 C314.409,255.581,313.725,255.609,313.333,255.383z"/>
      <path style="fill:#06033E;" d="M320.864,259.731l-4.876-2.815c-0.392-0.226-0.342-0.621,0.11-0.882l4.832-2.789 c0.452-0.261,1.136-0.289,1.527-0.063l4.876,2.815c0.392,0.226,0.342,0.621-0.11,0.882l-4.831,2.789 C321.939,259.928,321.255,259.957,320.864,259.731z"/>
      <path style="fill:#06033E;" d="M328.394,264.078l-4.876-2.815c-0.392-0.226-0.342-0.621,0.11-0.882l4.832-2.789 c0.452-0.261,1.136-0.289,1.527-0.063l4.876,2.815c0.392,0.226,0.342,0.621-0.11,0.882l-4.831,2.789 C329.47,264.276,328.786,264.305,328.394,264.078z"/>
      <path style="fill:#06033E;" d="M335.924,268.426l-4.876-2.815c-0.391-0.226-0.342-0.621,0.11-0.882l4.831-2.789 c0.452-0.261,1.136-0.289,1.528-0.063l4.876,2.815c0.391,0.226,0.342,0.621-0.11,0.882l-4.831,2.789 C337,268.624,336.316,268.652,335.924,268.426z"/>
      <path style="fill:#06033E;" d="M349.311,276.155l-10.639-6.143c-0.391-0.226-0.342-0.621,0.11-0.882l4.832-2.79 c0.452-0.261,1.136-0.289,1.527-0.063l10.639,6.143c0.392,0.226,0.342,0.621-0.11,0.882l-4.831,2.789 C350.387,276.353,349.703,276.381,349.311,276.155z"/>
      <path style="fill:#06033E;" d="M363.972,267.691l-8.98-5.185c-0.392-0.226-0.342-0.621,0.11-0.882l4.832-2.789 c0.452-0.261,1.136-0.289,1.527-0.063l8.98,5.185c0.391,0.226,0.342,0.621-0.11,0.882l-4.832,2.789 C365.047,267.889,364.363,267.917,363.972,267.691z"/>
      <path style="fill:#06033E;" d="M288.869,232.795l-4.876-2.815c-0.392-0.226-0.342-0.621,0.11-0.882l4.831-2.789 c0.452-0.261,1.136-0.289,1.528-0.063l4.876,2.815c0.392,0.226,0.342,0.621-0.11,0.882l-4.831,2.789 C289.945,232.992,289.261,233.021,288.869,232.795z"/>
      <path style="fill:#06033E;" d="M281.152,228.339l-4.876-2.815c-0.392-0.226-0.342-0.621,0.11-0.882l4.832-2.789 c0.452-0.261,1.136-0.289,1.527-0.063l4.876,2.815c0.392,0.226,0.342,0.621-0.11,0.882l-4.832,2.789 C282.227,228.536,281.543,228.565,281.152,228.339z"/>
      <path style="fill:#06033E;" d="M273.434,223.883l-4.876-2.815c-0.392-0.226-0.342-0.621,0.11-0.882l4.832-2.789 c0.452-0.261,1.136-0.289,1.527-0.063l4.876,2.815c0.392,0.226,0.342,0.621-0.11,0.882l-4.831,2.789 C274.509,224.081,273.826,224.109,273.434,223.883z"/>
      <path style="fill:#06033E;" d="M265.717,219.427l-4.876-2.815c-0.391-0.226-0.342-0.621,0.11-0.882l4.831-2.789 c0.452-0.261,1.136-0.289,1.527-0.063l4.876,2.815c0.391,0.226,0.342,0.621-0.11,0.882l-4.832,2.789 C266.792,219.625,266.108,219.653,265.717,219.427z"/>
      <path style="fill:#06033E;" d="M296.4,237.142l-4.876-2.815c-0.392-0.226-0.342-0.621,0.11-0.882l4.832-2.79 c0.452-0.261,1.136-0.289,1.527-0.063l4.876,2.815c0.392,0.226,0.342,0.621-0.11,0.882l-4.832,2.79 C297.475,237.34,296.791,237.368,296.4,237.142z"/>
      <path style="fill:#06033E;" d="M303.93,241.49l-4.876-2.815c-0.392-0.226-0.342-0.621,0.11-0.882l4.831-2.789 c0.452-0.261,1.136-0.289,1.527-0.063l4.876,2.815c0.392,0.226,0.342,0.621-0.11,0.882l-4.832,2.79 C305.005,241.688,304.321,241.716,303.93,241.49z"/>
      <path style="fill:#06033E;" d="M311.46,245.837l-4.876-2.815c-0.392-0.226-0.342-0.621,0.11-0.882l4.831-2.79 c0.452-0.261,1.136-0.289,1.528-0.063l4.876,2.815c0.391,0.226,0.342,0.621-0.11,0.882l-4.831,2.789 C312.535,246.035,311.852,246.063,311.46,245.837z"/>
      <path style="fill:#06033E;" d="M318.99,250.185l-4.876-2.815c-0.392-0.226-0.342-0.621,0.11-0.882l4.831-2.79 c0.452-0.261,1.136-0.289,1.527-0.063l4.876,2.815c0.392,0.226,0.342,0.621-0.11,0.882l-4.831,2.79 C320.066,250.383,319.382,250.411,318.99,250.185z"/>
      <path style="fill:#06033E;" d="M326.521,254.533l-4.876-2.815c-0.392-0.226-0.342-0.621,0.11-0.882l4.831-2.789 c0.452-0.261,1.136-0.289,1.527-0.063l4.876,2.815c0.392,0.226,0.342,0.621-0.11,0.882l-4.832,2.79 C327.596,254.73,326.912,254.759,326.521,254.533z"/>
      <path style="fill:#06033E;" d="M334.051,258.88l-4.876-2.815c-0.392-0.226-0.342-0.621,0.11-0.882l4.832-2.79 c0.452-0.261,1.136-0.289,1.527-0.063l4.876,2.815c0.392,0.226,0.342,0.621-0.11,0.882l-4.832,2.789 C335.126,259.078,334.442,259.106,334.051,258.88z"/>
      <path style="fill:#06033E;" d="M341.581,263.228l-4.876-2.815c-0.391-0.226-0.342-0.621,0.11-0.882l4.832-2.789 c0.452-0.261,1.136-0.289,1.527-0.063l4.876,2.815c0.391,0.226,0.342,0.621-0.11,0.882l-4.831,2.789 C342.657,263.426,341.973,263.454,341.581,263.228z"/>
      <path style="fill:#06033E;" d="M349.112,267.575l-4.876-2.815c-0.391-0.226-0.342-0.621,0.11-0.882l4.832-2.789 c0.452-0.261,1.136-0.289,1.527-0.063l4.876,2.815c0.391,0.226,0.342,0.621-0.11,0.882l-4.832,2.789 C350.187,267.773,349.503,267.801,349.112,267.575z"/>
      <path style="fill:#06033E;" d="M356.642,271.923l-4.876-2.815c-0.392-0.226-0.342-0.621,0.11-0.882l4.831-2.789 c0.452-0.261,1.136-0.289,1.527-0.063l4.876,2.815c0.392,0.226,0.343,0.621-0.11,0.882l-4.832,2.79 C357.717,272.121,357.033,272.149,356.642,271.923z"/>
      <path style="fill:#06033E;" d="M284.904,222.041l-4.876-2.815c-0.392-0.226-0.342-0.621,0.11-0.882l4.831-2.789 c0.452-0.261,1.136-0.289,1.528-0.063l4.876,2.815c0.392,0.226,0.342,0.621-0.11,0.882l-4.831,2.789 C285.979,222.239,285.296,222.267,284.904,222.041z"/>
      <path style="fill:#06033E;" d="M277.411,217.715l-4.876-2.815c-0.391-0.226-0.342-0.621,0.11-0.882l4.831-2.79 c0.452-0.261,1.136-0.289,1.528-0.063l4.876,2.815c0.392,0.226,0.342,0.621-0.11,0.882l-4.831,2.789 C278.487,217.913,277.803,217.941,277.411,217.715z"/>
      <path style="fill:#06033E;" d="M269.919,213.389l-4.876-2.815c-0.391-0.226-0.342-0.621,0.11-0.882l4.831-2.79 c0.452-0.261,1.136-0.289,1.527-0.063l4.876,2.815c0.391,0.226,0.342,0.621-0.11,0.882l-4.831,2.79 C270.994,213.587,270.31,213.615,269.919,213.389z"/>
      <path style="fill:#06033E;" d="M262.426,209.063l-4.876-2.815c-0.391-0.226-0.342-0.621,0.11-0.882l4.831-2.789 c0.452-0.261,1.136-0.289,1.527-0.063l4.876,2.815c0.392,0.226,0.343,0.621-0.11,0.882L263.953,209 C263.501,209.261,262.817,209.289,262.426,209.063z"/>
      <path style="fill:#06033E;" d="M270.131,204.615l-4.876-2.815c-0.392-0.226-0.342-0.621,0.11-0.882l1.597-0.922 c0.452-0.261,1.136-0.289,1.527-0.063l4.876,2.815c0.392,0.226,0.342,0.621-0.11,0.882l-1.597,0.922 C271.206,204.812,270.522,204.841,270.131,204.615z"/>
      <path style="fill:#06033E;" d="M279.909,210.26l-4.876-2.815c-0.391-0.226-0.342-0.621,0.11-0.882l1.597-0.922 c0.452-0.261,1.136-0.289,1.527-0.063l4.876,2.815c0.392,0.226,0.342,0.621-0.11,0.882l-1.597,0.922 C280.984,210.458,280.3,210.486,279.909,210.26z"/>
      <path style="fill:#06033E;" d="M287.37,214.568l-4.876-2.815c-0.392-0.226-0.342-0.621,0.11-0.882l1.597-0.922 c0.452-0.261,1.136-0.289,1.528-0.063l4.876,2.815c0.391,0.226,0.342,0.621-0.11,0.882l-1.597,0.922 C288.446,214.766,287.762,214.794,287.37,214.568z"/>
      <path style="fill:#06033E;" d="M294.832,218.876l-4.876-2.815c-0.391-0.226-0.342-0.621,0.11-0.882l1.597-0.922 c0.452-0.261,1.136-0.289,1.527-0.063l4.876,2.815c0.392,0.226,0.342,0.621-0.11,0.882l-1.597,0.922 C295.907,219.074,295.223,219.102,294.832,218.876z"/>
      <path style="fill:#06033E;" d="M302.293,223.184l-4.876-2.815c-0.391-0.226-0.342-0.621,0.11-0.882l1.597-0.922 c0.452-0.261,1.136-0.289,1.527-0.063l4.876,2.815c0.392,0.226,0.342,0.621-0.11,0.882l-1.597,0.922 C303.369,223.382,302.685,223.41,302.293,223.184z"/>
      <path style="fill:#06033E;" d="M343.95,247.235l-4.876-2.815c-0.391-0.226-0.342-0.621,0.11-0.882l1.597-0.922 c0.452-0.261,1.136-0.289,1.527-0.063l4.876,2.815c0.392,0.226,0.342,0.621-0.11,0.882l-1.597,0.922 C345.026,247.432,344.342,247.461,343.95,247.235z"/>
      <path style="fill:#06033E;" d="M351.412,251.542l-4.876-2.815c-0.392-0.226-0.342-0.621,0.11-0.882l1.597-0.922 c0.452-0.261,1.136-0.289,1.528-0.063l4.876,2.815c0.392,0.226,0.342,0.621-0.11,0.882l-1.597,0.922 C352.487,251.74,351.803,251.769,351.412,251.542z"/>
      <path style="fill:#06033E;" d="M358.874,255.85l-4.876-2.815c-0.392-0.226-0.342-0.621,0.11-0.882l1.597-0.922 c0.452-0.261,1.136-0.289,1.527-0.063l4.876,2.815c0.391,0.226,0.342,0.621-0.11,0.882l-1.597,0.922 C359.949,256.048,359.265,256.077,358.874,255.85z"/>
      <path style="fill:#06033E;" d="M366.335,260.158l-4.876-2.815c-0.392-0.226-0.342-0.621,0.11-0.882l1.597-0.922 c0.452-0.261,1.136-0.289,1.527-0.063l4.876,2.815c0.392,0.226,0.342,0.621-0.11,0.882l-1.597,0.922 C367.41,260.356,366.727,260.384,366.335,260.158z"/>
      <path style="fill:#06033E;" d="M292.434,226.389l-4.876-2.815c-0.391-0.226-0.342-0.621,0.11-0.882l4.831-2.789 c0.452-0.261,1.136-0.289,1.527-0.063l4.876,2.815c0.391,0.226,0.342,0.621-0.11,0.882l-4.831,2.789 C293.51,226.586,292.826,226.615,292.434,226.389z"/>
      <path style="fill:#06033E;" d="M299.965,230.736l-4.876-2.815c-0.392-0.226-0.342-0.621,0.11-0.882l4.831-2.789 c0.452-0.261,1.136-0.289,1.527-0.063l4.876,2.815c0.392,0.226,0.342,0.621-0.11,0.882l-4.831,2.789 C301.04,230.934,300.356,230.962,299.965,230.736z"/>
      <path style="fill:#06033E;" d="M307.495,235.084l-4.876-2.815c-0.392-0.226-0.342-0.621,0.11-0.882l4.831-2.789 c0.452-0.261,1.136-0.289,1.527-0.063l4.876,2.815c0.392,0.226,0.342,0.621-0.11,0.882l-4.832,2.79 C308.57,235.282,307.887,235.31,307.495,235.084z"/>
      <path style="fill:#06033E;" d="M315.025,239.432l-4.876-2.815c-0.392-0.226-0.342-0.621,0.11-0.882l4.832-2.789 c0.452-0.261,1.136-0.289,1.527-0.063l4.876,2.815c0.392,0.226,0.342,0.621-0.11,0.882l-4.831,2.789 C316.101,239.629,315.417,239.658,315.025,239.432z"/>
      <path style="fill:#06033E;" d="M322.556,243.779l-4.876-2.815c-0.391-0.226-0.342-0.621,0.11-0.882l4.832-2.789 c0.452-0.261,1.136-0.289,1.527-0.063l4.876,2.815c0.391,0.226,0.342,0.621-0.11,0.882l-4.831,2.79 C323.631,243.977,322.947,244.005,322.556,243.779z"/>
      <path style="fill:#06033E;" d="M330.086,248.127l-4.876-2.815c-0.392-0.226-0.342-0.621,0.11-0.882l4.832-2.789 c0.452-0.261,1.136-0.289,1.527-0.063l4.876,2.815c0.391,0.226,0.342,0.621-0.11,0.882l-4.832,2.79 C331.161,248.324,330.477,248.353,330.086,248.127z"/>
      <path style="fill:#06033E;" d="M337.616,252.474l-4.876-2.815c-0.392-0.226-0.342-0.621,0.11-0.882l4.832-2.789 c0.452-0.261,1.136-0.289,1.527-0.063l4.876,2.815c0.392,0.226,0.342,0.621-0.11,0.882l-4.832,2.789 C338.691,252.672,338.008,252.7,337.616,252.474z"/>
      <path style="fill:#06033E;" d="M345.146,256.822l-4.876-2.815c-0.392-0.226-0.342-0.621,0.11-0.882l4.831-2.789 c0.452-0.261,1.136-0.289,1.527-0.063l4.876,2.815c0.392,0.226,0.342,0.621-0.11,0.882l-4.831,2.79 C346.222,257.02,345.538,257.048,345.146,256.822z"/>
      <path style="fill:#06033E;" d="M352.677,261.169l-4.876-2.815c-0.391-0.226-0.342-0.621,0.11-0.882l4.832-2.789 c0.452-0.261,1.136-0.289,1.527-0.063l4.876,2.815c0.392,0.226,0.342,0.621-0.11,0.882l-4.831,2.789 C353.752,261.367,353.068,261.396,352.677,261.169z"/>
      <path style="fill:#06033E;" d="M249.383,226.925l-14.361-8.291c-0.391-0.226-0.342-0.621,0.11-0.882l4.831-2.789 c0.452-0.261,1.136-0.289,1.528-0.063l14.361,8.291c0.391,0.226,0.342,0.621-0.11,0.882l-4.832,2.789 C250.458,227.123,249.774,227.152,249.383,226.925z"/>
      <path style="fill:#06033E;" d="M341.894,280.337l-14.361-8.291c-0.391-0.226-0.342-0.621,0.11-0.882l4.832-2.789 c0.452-0.261,1.136-0.289,1.527-0.063l14.361,8.291c0.392,0.226,0.342,0.621-0.11,0.882l-4.832,2.789 C342.969,280.534,342.285,280.563,341.894,280.337z"/>
      <path style="fill:#06033E;" d="M311.779,272.553l-4.876-2.815c-0.392-0.226-0.342-0.621,0.11-0.882l5.756-3.323 c0.452-0.261,1.136-0.289,1.527-0.063l4.876,2.815c0.391,0.226,0.342,0.621-0.11,0.882l-5.756,3.323 C312.855,272.751,312.171,272.78,311.779,272.553z"/>
      <path style="fill:#06033E;" d="M257.094,240.981l-7.798-4.502c-0.391-0.226-0.342-0.621,0.11-0.882l5.756-3.323 c0.452-0.261,1.136-0.289,1.527-0.063l7.798,4.502c0.392,0.226,0.342,0.621-0.11,0.882l-5.756,3.323 C258.17,241.179,257.486,241.207,257.094,240.981z"/>
      <path style="fill:#06033E;" d="M304.524,268.365l-7.798-4.502c-0.392-0.226-0.342-0.621,0.11-0.882l5.756-3.323 c0.452-0.261,1.136-0.289,1.527-0.063l7.798,4.502c0.391,0.226,0.342,0.621-0.11,0.882l-5.755,3.323 C305.599,268.562,304.915,268.591,304.524,268.365z"/>
      <path style="fill:#06033E;" d="M267.959,247.254l-7.798-4.502c-0.391-0.226-0.342-0.621,0.11-0.882l5.756-3.323 c0.452-0.261,1.136-0.289,1.527-0.063l7.798,4.502c0.392,0.226,0.342,0.621-0.11,0.882l-5.756,3.323 C269.034,247.451,268.35,247.48,267.959,247.254z"/>
      <path style="fill:#06033E;" d="M267.606,238.514l33.905,19.575c0.421,0.243,0.421,0.637,0,0.88l-5.869,3.388 c-0.421,0.243-1.103,0.243-1.524,0l-33.905-19.575L267.606,238.514z"/>
      <path style="fill:#06033E;" d="M332.825,280.436l5.432,3.136c0.321,0.185,0.281,0.509-0.09,0.723l-2.355,1.359 c-0.37,0.214-0.931,0.237-1.252,0.052l-5.431-3.136c-0.321-0.185-0.281-0.509,0.09-0.723l2.354-1.359 C331.944,280.274,332.504,280.251,332.825,280.436z"/>
      <path style="fill:#06033E;" d="M325.232,276.052l5.432,3.136c0.321,0.185,0.281,0.509-0.09,0.723l-2.354,1.359 c-0.371,0.214-0.931,0.237-1.252,0.052l-5.431-3.136c-0.321-0.185-0.281-0.509,0.09-0.723l2.354-1.359 C324.351,275.891,324.911,275.867,325.232,276.052z"/>
      <path style="fill:#06033E;" d="M317.702,271.705l5.432,3.136c0.321,0.185,0.281,0.509-0.09,0.723l-2.354,1.359 c-0.371,0.214-0.931,0.237-1.252,0.052l-5.432-3.136c-0.321-0.185-0.281-0.509,0.09-0.723l2.354-1.359 C316.821,271.543,317.381,271.52,317.702,271.705z"/>
      <path style="fill:#06033E;" d="M329.391,273.652l5.431,3.136c0.321,0.185,0.281,0.509-0.09,0.723l-2.355,1.359 c-0.37,0.214-0.931,0.237-1.252,0.052l-5.432-3.136c-0.321-0.185-0.281-0.509,0.09-0.723l2.355-1.359 C328.509,273.49,329.07,273.466,329.391,273.652z"/>
    </g>
    <radialGradient id="SVGID_00000044864255804561998580000006927424307306433966_" cx="240.8779" cy="107.1847" r="223.3409" gradientUnits="userSpaceOnUse">
      <stop offset="0" style="stop-color:#E39A65"/>
      <stop offset="0.4742" style="stop-color:#A92FFB"/>
      <stop offset="0.5875" style="stop-color:#891CFB"/>
      <stop offset="0.7262" style="stop-color:#6507FA"/>
      <stop offset="1" style="stop-color:#3919BB"/>
    </radialGradient>
    <path style="fill:url(#SVGID_00000044864255804561998580000006927424307306433966_);" d="M409.086,264.856l-143.862-83.059 c-2.262-1.306-3.443-4.489-2.637-7.108l32.534-105.631c0.806-2.619,3.293-3.684,5.555-2.378l143.862,83.059 c2.262,1.306,3.443,4.488,2.637,7.108l-32.534,105.631C413.836,265.098,411.349,266.162,409.086,264.856z"/>
    <linearGradient id="SVGID_00000140710274593374907470000017763518531907304376_" gradientUnits="userSpaceOnUse" x1="265.4256" y1="165.8121" x2="444.392" y2="165.8121">
      <stop offset="0" style="stop-color:#3919BB"/>
      <stop offset="1" style="stop-color:#6507FA"/>
    </linearGradient>
    <path style="fill:url(#SVGID_00000140710274593374907470000017763518531907304376_);" d="M407.73,261.157l-139.538-80.629 c-2.165-1.25-3.295-4.295-2.524-6.802l31.104-100.983c0.771-2.507,3.151-3.526,5.316-2.276l139.538,80.629 c2.165,1.25,3.295,4.295,2.524,6.802l-31.104,100.983C412.275,261.388,409.895,262.407,407.73,261.157z"/>
    <path style="opacity:0.4;fill:#06033E;" d="M407.73,261.157l-139.538-80.629c-2.165-1.25-3.295-4.295-2.524-6.802l31.104-100.983 c0.771-2.507,3.151-3.526,5.316-2.276l139.538,80.629c2.165,1.25,3.295,4.295,2.524,6.802l-31.104,100.983 C412.275,261.388,409.895,262.407,407.73,261.157z"/>
    <path style="opacity:0.4;fill:#06033E;" d="M407.73,261.157l-139.538-80.629c-2.165-1.25-3.295-4.295-2.524-6.802l31.104-100.983 c0.771-2.507,3.151-3.526,5.316-2.276l139.538,80.629c2.165,1.25,3.295,4.295,2.524,6.802l-31.104,100.983 C412.275,261.388,409.895,262.407,407.73,261.157z"/>
    <path style="opacity:0.5;fill:#06033E;" d="M400.233,230.297l-94.46-54.536c-1.485-0.858-2.261-2.947-1.732-4.667l21.362-69.358 c0.529-1.72,2.162-2.419,3.648-1.562l94.46,54.536c1.485,0.858,2.261,2.947,1.732,4.667l-21.362,69.358 C403.352,230.455,401.719,231.154,400.233,230.297z"/>
    <g>
      <radialGradient id="SVGID_00000088833439818067525870000008313270890882386055_" cx="159.3462" cy="59.4914" r="347.8475" gradientUnits="userSpaceOnUse">
        <stop offset="0" style="stop-color:#E39A65"/>
        <stop offset="0.4742" style="stop-color:#A92FFB"/>
        <stop offset="0.5875" style="stop-color:#891CFB"/>
        <stop offset="0.7262" style="stop-color:#6507FA"/>
        <stop offset="1" style="stop-color:#3919BB"/>
      </radialGradient>
      <path style="fill:url(#SVGID_00000088833439818067525870000008313270890882386055_);" d="M387.47,231.971l-94.46-54.536 c-1.485-0.858-2.261-2.947-1.732-4.667l21.362-69.358c0.529-1.72,2.162-2.419,3.647-1.562l94.46,54.537 c1.485,0.858,2.26,2.947,1.731,4.667l-21.362,69.358C390.589,232.13,388.956,232.829,387.47,231.971z"/>
    </g>
    <g style="opacity:0.5;">
      <path style="fill:#06033E;" d="M387.47,231.971l-94.46-54.536c-1.485-0.858-2.261-2.947-1.732-4.667l21.362-69.358 c0.529-1.72,2.162-2.419,3.647-1.562l94.46,54.537c1.485,0.858,2.26,2.947,1.731,4.667l-21.362,69.358 C390.589,232.13,388.956,232.829,387.47,231.971z"/>
    </g>
    <path style="fill:#FFFFFF;" d="M410.748,156.385l-94.46-54.537c-0.931-0.537-1.919-0.463-2.658,0.09 c0.445-0.013,0.91,0.088,1.364,0.349l94.46,54.536c1.485,0.857,2.26,2.947,1.731,4.667l-21.362,69.358 c-0.198,0.642-0.55,1.141-0.99,1.471c1.013-0.03,1.916-0.716,2.284-1.911l21.362-69.358 C413.009,159.332,412.233,157.242,410.748,156.385z"/>
    <path style="opacity:0.4;fill:#06033E;" d="M268.334,288.609c-1.302,0-2.548-0.271-3.5-0.82v0.001l-37.846-21.85 c-1.003-0.58-1.555-1.407-1.555-2.332c-0.001-1.072,0.761-2.127,2.087-2.893l19.48-11.248c2.381-1.373,5.874-1.508,7.957-0.307 l37.845,21.85c1.003,0.579,1.555,1.407,1.556,2.332c0,1.072-0.761,2.127-2.087,2.892l-19.482,11.248 C271.499,288.228,269.878,288.609,268.334,288.609z M251.476,249.447c-1.368,0-2.821,0.329-3.928,0.968l-19.48,11.247 c-0.98,0.565-1.542,1.275-1.542,1.946c0,0.663,0.549,1.119,1.01,1.385l37.846,21.85c1.717,0.989,4.858,0.851,6.862-0.308 l19.481-11.247c0.979-0.565,1.541-1.275,1.541-1.946c0-0.663-0.549-1.119-1.01-1.385l-37.845-21.85 C253.643,249.663,252.587,249.447,251.476,249.447z"/>
  </g>
  <g transform="matrix(1.75768, 0, 0.004002, 1.399767, 205.232651, 140.085922)" style="">
    <g>
      <path style="fill:#FFFFFF;" d="M339.296,138.236l-5.84-3.372c-0.542-0.313-0.832-1.065-0.649-1.679l0,0 c0.183-0.615,0.771-0.859,1.313-0.546l5.84,3.372c0.542,0.313,0.832,1.065,0.649,1.679l0,0 C340.425,138.304,339.837,138.548,339.296,138.236z"/>
      <path style="fill:#FFFFFF;" d="M353.206,146.267l-8.611-4.972c-0.542-0.313-0.832-1.065-0.649-1.679l0,0 c0.183-0.615,0.771-0.859,1.313-0.546l8.611,4.971c0.542,0.313,0.832,1.065,0.649,1.679l0,0 C354.336,146.335,353.748,146.58,353.206,146.267z"/>
      <path style="fill:#FFFFFF;" d="M327.518,164.235l-5.84-3.372c-0.542-0.313-0.832-1.065-0.649-1.679l0,0 c0.183-0.615,0.771-0.859,1.313-0.547l5.84,3.372c0.542,0.313,0.832,1.065,0.649,1.679l0,0 C328.648,164.303,328.06,164.548,327.518,164.235z"/>
      <path style="fill:#FFFFFF;" d="M339.918,171.395l-8.611-4.971c-0.542-0.313-0.832-1.065-0.649-1.679l0,0 c0.183-0.615,0.771-0.859,1.313-0.546l8.611,4.972c0.542,0.313,0.832,1.065,0.649,1.679l0,0 C341.048,171.463,340.46,171.707,339.918,171.395z"/>
      <path style="fill:#FFFFFF;" d="M321.802,133.602l-3.648-2.106c-0.542-0.313-0.832-1.065-0.649-1.679l0,0 c0.183-0.615,0.771-0.859,1.313-0.546l3.648,2.106c0.542,0.313,0.832,1.065,0.649,1.679l0,0 C322.932,133.67,322.344,133.915,321.802,133.602z"/>
      <path style="fill:#FFFFFF;" d="M332.779,145.406l-11.146-6.435c-0.542-0.313-0.832-1.065-0.649-1.679l0,0 c0.183-0.615,0.771-0.859,1.313-0.546l11.146,6.435c0.542,0.313,0.832,1.065,0.649,1.679l0,0 C333.909,145.475,333.321,145.719,332.779,145.406z"/>
      <path style="fill:#FFFFFF;" d="M322.499,150.404l-3.648-2.106c-0.542-0.313-0.832-1.065-0.649-1.679l0,0 c0.183-0.615,0.771-0.859,1.313-0.546l3.648,2.106c0.542,0.313,0.832,1.065,0.649,1.679h0 C323.628,150.472,323.04,150.717,322.499,150.404z"/>
      <path style="fill:#FFFFFF;" d="M341.263,183.104l-9.744-5.626c-0.542-0.313-0.832-1.065-0.649-1.679l0,0 c0.183-0.615,0.771-0.859,1.313-0.546l9.744,5.626c0.542,0.313,0.832,1.065,0.649,1.679l0,0 C342.392,183.172,341.805,183.417,341.263,183.104z"/>
      <path style="fill:#FFFFFF;" d="M318.41,158.977l-2.342-1.352c-0.542-0.313-0.832-1.065-0.649-1.679l0,0 c0.183-0.615,0.771-0.859,1.313-0.546l2.342,1.352c0.542,0.313,0.832,1.065,0.649,1.679l0,0 C319.539,159.045,318.952,159.289,318.41,158.977z"/>
      <path style="fill:#FFFFFF;" d="M316.194,168.63l-2.908-1.679c-0.542-0.313-0.832-1.065-0.649-1.679v0 c0.183-0.615,0.771-0.859,1.313-0.546l2.908,1.679c0.542,0.313,0.832,1.065,0.649,1.679l0,0 C317.324,168.698,316.736,168.943,316.194,168.63z"/>
      <path style="fill:#FFFFFF;" d="M327.507,175.162l-7.667-4.426c-0.542-0.313-0.832-1.065-0.649-1.679l0,0 c0.183-0.615,0.771-0.859,1.313-0.546l7.667,4.426c0.542,0.313,0.832,1.065,0.649,1.679l0,0 C328.637,175.23,328.049,175.475,327.507,175.162z"/>
      <path style="fill:#FFFFFF;" d="M317.407,174.797l-5.512-3.183c-0.542-0.313-0.832-1.065-0.649-1.679l0,0 c0.183-0.615,0.771-0.859,1.313-0.546l5.513,3.183c0.542,0.313,0.832,1.065,0.649,1.679l0,0 C318.537,174.865,317.949,175.11,317.407,174.797z"/>
      <path style="fill:#FFFFFF;" d="M349.622,187.954l-3.54-2.044c-0.542-0.313-0.832-1.065-0.649-1.679l0,0 c0.183-0.615,0.771-0.859,1.313-0.546l3.54,2.044c0.542,0.313,0.832,1.065,0.649,1.679l0,0 C350.752,188.022,350.164,188.266,349.622,187.954z"/>
      <path style="fill:#FFFFFF;" d="M336.069,158.239l-9.744-5.626c-0.542-0.313-0.832-1.065-0.649-1.679l0,0 c0.183-0.615,0.771-0.859,1.313-0.546l9.744,5.626c0.542,0.313,0.832,1.065,0.649,1.679l0,0 C337.199,158.307,336.611,158.552,336.069,158.239z"/>
    </g>
    <path style="fill:#E8975B;" d="M337.224,153.439l-16.982-9.805c-0.542-0.313-0.832-1.065-0.649-1.679l0,0 c0.183-0.615,0.771-0.859,1.313-0.546l16.982,9.805c0.542,0.313,0.832,1.065,0.649,1.679l0,0 C338.354,153.507,337.766,153.752,337.224,153.439z"/>
    <path style="fill:#E8975B;" d="M327.203,158.587l-9.744-5.626c-0.542-0.313-0.832-1.065-0.649-1.679l0,0 c0.183-0.615,0.771-0.859,1.313-0.546l9.744,5.626c0.542,0.313,0.832,1.065,0.649,1.679l0,0 C328.333,158.655,327.745,158.9,327.203,158.587z"/>
    <path style="fill:#E8975B;" d="M343.459,162.506l-3.54-2.044c-0.542-0.313-0.832-1.065-0.649-1.679l0,0 c0.183-0.615,0.771-0.859,1.313-0.546l3.54,2.044c0.542,0.313,0.832,1.065,0.649,1.679l0,0 C344.589,162.574,344.001,162.819,343.459,162.506z"/>
    <path style="fill:#E8975B;" d="M379.47,161.431l-20.965-12.104c-0.542-0.313-0.832-1.065-0.649-1.679l0,0 c0.183-0.615,0.771-0.859,1.313-0.546l20.965,12.104c0.542,0.313,0.832,1.065,0.649,1.679l0,0 C380.6,161.499,380.012,161.743,379.47,161.431z"/>
    <path style="fill:#F8359E;" d="M326.39,169.05l-11.713-6.762c-0.542-0.313-0.832-1.065-0.649-1.679l0,0 c0.183-0.615,0.771-0.859,1.313-0.547l11.713,6.762c0.542,0.313,0.832,1.065,0.649,1.679l0,0 C327.52,169.118,326.932,169.363,326.39,169.05z"/>
    <path style="fill:#F8359E;" d="M328.156,131.804l-8.611-4.972c-0.542-0.313-0.832-1.065-0.649-1.679l0,0 c0.183-0.615,0.771-0.859,1.313-0.546l8.611,4.972c0.542,0.313,0.832,1.065,0.649,1.679l0,0 C329.286,131.872,328.698,132.117,328.156,131.804z"/>
    <path style="fill:#E8975B;" d="M315.606,179.224l-9.973-5.758c-0.542-0.313-0.832-1.065-0.649-1.679l0,0 c0.183-0.615,0.771-0.859,1.313-0.547l9.973,5.758c0.542,0.313,0.832,1.065,0.649,1.679l0,0 C316.736,179.292,316.148,179.537,315.606,179.224z"/>
  </g>
  <g transform="matrix(3.935133, 0, 0.008647, 3.024514, -714.850952, -143.121582)" style="">
    <path style="fill:#FFFFFF;" d="M381.824,150.649l-4.268-2.465c-0.396-0.229-0.609-0.778-0.474-1.227l0,0 c0.134-0.449,0.564-0.628,0.96-0.399l4.268,2.464c0.396,0.229,0.608,0.778,0.474,1.228l0,0 C382.649,150.698,382.22,150.877,381.824,150.649z"/>
    <path style="fill:#FFFFFF;" d="M389.966,155.35l-4.269-2.465c-0.396-0.229-0.608-0.778-0.474-1.227l0,0 c0.134-0.449,0.564-0.628,0.96-0.399l4.268,2.464c0.396,0.229,0.608,0.778,0.474,1.227l0,0 C390.792,155.399,390.362,155.578,389.966,155.35z"/>
    <path style="fill:#FFFFFF;" d="M398.108,160.05l-4.268-2.464c-0.396-0.229-0.608-0.778-0.474-1.227l0,0 c0.134-0.449,0.564-0.628,0.96-0.399l4.268,2.464c0.396,0.229,0.609,0.778,0.475,1.227l0,0 C398.934,160.1,398.504,160.279,398.108,160.05z"/>
    <path style="fill:#F8359E;" d="M402.11,162.364l-0.128-0.077c-0.396-0.229-0.608-0.778-0.474-1.227l0,0 c0.134-0.449,0.564-0.628,0.96-0.399l0.128,0.077c0.396,0.229,0.608,0.778,0.474,1.227l0,0 C402.936,162.414,402.506,162.593,402.11,162.364z"/>
  </g>
  <linearGradient id="SVGID_00000180326963093948936110000015042300673027383194_" gradientUnits="userSpaceOnUse" x1="143.4096" y1="190.2935" x2="220.185" y2="190.2935" gradientTransform="matrix(1.609696, 0, 0.004047, 1.164753, 217.258175, 203.48177)">
    <stop offset="0" style="stop-color:#E39A65"/>
    <stop offset="1" style="stop-color:#E95F8D"/>
  </linearGradient>
  <path style="fill: url(&quot;#SVGID_00000180326963093948936110000015042300673027383194_&quot;); transform-box: fill-box; transform-origin: 50% 50%;" d="M 510.757 450.78 C 506.409 450.78 502.058 449.97 498.175 448.349 L 452.079 429.121 C 450.078 428.285 448.885 426.793 448.878 425.125 C 448.871 423.458 450.057 421.966 452.05 421.131 L 498.009 401.902 C 505.756 398.661 515.398 398.661 523.164 401.902 L 569.261 421.131 C 571.257 421.966 572.455 423.46 572.461 425.125 C 572.469 426.793 571.278 428.287 569.29 429.121 L 523.327 448.349 C 519.454 449.97 515.11 450.78 510.757 450.78 Z M 499.664 446.472 C 506.509 449.325 514.999 449.325 521.826 446.472 L 567.783 427.244 C 568.84 426.801 569.471 426.009 569.468 425.126 C 569.462 424.243 568.828 423.453 567.77 423.009 L 521.675 403.781 C 514.826 400.924 506.339 400.928 499.513 403.781 L 453.554 423.009 C 452.498 423.453 451.869 424.243 451.874 425.125 C 451.875 426.009 452.512 426.801 453.568 427.242 L 499.664 446.472 Z" transform="matrix(0.997967, -0.063726, 0.063726, 0.997967, 0, 0.000002)"/>
  <g transform="matrix(1.096826, 0, 0.002815, 0.984775, 313.658295, 248.19165)" style="">
    <path style="opacity:0.6;fill:#020230;" d="M195.541,198.701c-7.67,4.428-20.106,4.428-27.776,0c-7.67-4.428-7.67-11.608,0-16.036 c7.67-4.428,20.106-4.428,27.776,0C203.211,187.093,203.211,194.272,195.541,198.701z"/>
    <radialGradient id="SVGID_00000096033957780358414970000000456441121165228220_" cx="150.2162" cy="127.668" r="165.349" gradientUnits="userSpaceOnUse">
      <stop offset="0" style="stop-color:#E39A65"/>
      <stop offset="0.1528" style="stop-color:#A92FFB"/>
      <stop offset="0.4087" style="stop-color:#3919BB"/>
      <stop offset="0.9311" style="stop-color:#3919BB"/>
    </radialGradient>
    <path style="fill:url(#SVGID_00000096033957780358414970000000456441121165228220_);" d="M210.767,109.863h-55.942l5.203,60.569 l0,0c0,3.364,2.223,6.728,6.669,9.295c8.892,5.134,23.308,5.134,32.199,0c4.446-2.567,6.669-5.931,6.668-9.295L210.767,109.863z"/>
    <path style="opacity:0.4;fill:#06033E;" d="M210.767,109.863h-55.942l0.856,9.965c1.282,1.644,3.007,3.22,5.185,4.664 c10.69,7.091,28.328,8.458,40.364,3.351l-1.861,44.3c-0.081,1.931-0.748,3.809-1.999,5.282c-1.812,2.133-5.303,4.642-12.014,6.061 c4.947-0.321,9.748-1.568,13.541-3.758c4.446-2.567,6.669-5.931,6.668-9.295l4.173-48.575l0,0L210.767,109.863z"/>
    <ellipse style="opacity:0.4;fill:#06033E;" cx="182.796" cy="109.863" rx="27.971" ry="16.149"/>
    <ellipse style="opacity:0.4;fill:#06033E;" cx="182.796" cy="104.171" rx="24.092" ry="13.91"/>
    <linearGradient id="SVGID_00000000201897196120772980000012351600624075674791_" gradientUnits="userSpaceOnUse" x1="153.1426" y1="107.1846" x2="212.452" y2="107.1846">
      <stop offset="0" style="stop-color:#E39A65"/>
      <stop offset="0.252" style="stop-color:#A92FFB"/>
      <stop offset="0.5556" style="stop-color:#3919BB"/>
    </linearGradient>
    <path style="fill:url(#SVGID_00000000201897196120772980000012351600624075674791_);" d="M212.424,109.102l0.003,0.004 l-0.005-0.049c-0.002-0.028-0.006-0.055-0.008-0.083l-0.537-5.423l-0.023,0.061c-0.24-4.105-3.067-8.169-8.494-11.302 c-11.357-6.557-29.77-6.557-41.126,0c-5.564,3.213-8.395,7.403-8.506,11.613l-0.007-0.014l-0.512,4.829 c-0.014,0.126-0.031,0.251-0.04,0.377l-0.008,0.079l0.005-0.004c-0.307,4.601,2.576,9.259,8.66,12.771 c11.582,6.687,30.361,6.687,41.944,0C209.89,118.427,212.773,113.732,212.424,109.102z"/>
    <linearGradient id="SVGID_00000136409726747038026810000011933420241527560844_" gradientUnits="userSpaceOnUse" x1="158.7038" y1="104.171" x2="206.8881" y2="104.171">
      <stop offset="0" style="stop-color:#4F1FEC"/>
      <stop offset="1" style="stop-color:#A92FFB"/>
    </linearGradient>
    <ellipse style="fill:url(#SVGID_00000136409726747038026810000011933420241527560844_);" cx="182.796" cy="104.171" rx="24.092" ry="13.91"/>
    <linearGradient id="SVGID_00000045584277140537671670000016825335260256166844_" gradientUnits="userSpaceOnUse" x1="157.5606" y1="104.171" x2="205.7449" y2="104.171">
      <stop offset="0" style="stop-color:#4F1FEC"/>
      <stop offset="1" style="stop-color:#A92FFB"/>
    </linearGradient>
    <ellipse style="fill:url(#SVGID_00000045584277140537671670000016825335260256166844_);" cx="181.653" cy="104.171" rx="24.092" ry="13.91"/>
    <path style="opacity:0.4;fill:#06033E;" d="M168.618,96.407c9.408-5.432,24.663-5.432,34.071,0c0.12,0.069,0.22,0.145,0.337,0.215 c-0.908-0.809-1.967-1.578-3.195-2.287c-9.409-5.432-24.663-5.432-34.071,0c-9.289,5.363-9.389,14.009-0.337,19.456 C159.379,108.402,160.438,101.13,168.618,96.407z"/>
    <linearGradient id="SVGID_00000071519582224559125890000000237360750624852890_" gradientUnits="userSpaceOnUse" x1="158.7078" y1="97.82" x2="219.46" y2="97.82">
      <stop offset="0" style="stop-color:#131060"/>
      <stop offset="0.1857" style="stop-color:#141062"/>
      <stop offset="0.2823" style="stop-color:#19106A"/>
      <stop offset="0.3584" style="stop-color:#221078"/>
      <stop offset="0.4238" style="stop-color:#2E0F8B"/>
      <stop offset="0.4823" style="stop-color:#3E0FA3"/>
      <stop offset="0.5359" style="stop-color:#510EC2"/>
      <stop offset="0.5847" style="stop-color:#680DE5"/>
      <stop offset="0.6071" style="stop-color:#740DF8"/>
      <stop offset="0.6179" style="stop-color:#7A14F0"/>
      <stop offset="0.6826" style="stop-color:#9B3CC3"/>
      <stop offset="0.7477" style="stop-color:#B75D9D"/>
      <stop offset="0.8123" style="stop-color:#CC7680"/>
      <stop offset="0.8762" style="stop-color:#DC886C"/>
      <stop offset="0.9391" style="stop-color:#E5935F"/>
      <stop offset="1" style="stop-color:#E8975B"/>
    </linearGradient>
    <path style="fill:url(#SVGID_00000071519582224559125890000000237360750624852890_);" d="M165.76,96.749 c9.409-5.432,24.663-5.432,34.072,0c4.172,2.409,6.49,5.481,6.962,8.629c0.592-3.951-1.726-8.02-6.962-11.043 c-9.409-5.432-24.663-5.432-34.072,0c-5.236,3.023-7.554,7.092-6.962,11.042C159.27,102.23,161.588,99.158,165.76,96.749z"/>
    <radialGradient id="SVGID_00000138537245462490637580000006545651337945988799_" cx="145.7399" cy="90.4045" r="108.1645" gradientUnits="userSpaceOnUse">
      <stop offset="0" style="stop-color:#E39A65"/>
      <stop offset="0.252" style="stop-color:#A92FFB"/>
      <stop offset="0.7357" style="stop-color:#3919BB"/>
    </radialGradient>
    <path style="fill:url(#SVGID_00000138537245462490637580000006545651337945988799_);" d="M203.539,92.437 c-11.341-6.681-29.821-6.844-41.277-0.363c-11.456,6.48-11.549,17.15-0.209,23.831c11.34,6.681,29.82,6.844,41.277,0.364 C214.786,109.788,214.879,99.118,203.539,92.437z M199.832,114.007c-3.143,1.815-6.943,3.009-10.955,3.611l-0.437-1.437 c-0.177-0.58-0.712-0.977-1.318-0.977h-8.651c-0.606,0-1.142,0.397-1.318,0.977l-0.437,1.437 c-4.012-0.602-7.811-1.796-10.954-3.611c-9.409-5.432-9.409-14.239-0.001-19.671c9.408-5.432,24.663-5.432,34.071,0 C209.24,99.768,209.24,108.575,199.832,114.007z"/>
    <g>
      <path style="fill:#FFFFFF;" d="M199.831,93.306c-9.409-5.432-24.663-5.432-34.071,0c-4.931,2.847-7.273,6.621-7.035,10.35 c0.216-3.386,2.558-6.735,7.035-9.32c9.408-5.432,24.663-5.432,34.071,0c4.477,2.585,6.819,5.934,7.035,9.321 C207.105,99.927,204.763,96.153,199.831,93.306z"/>
      <path style="fill:#FFFFFF;" d="M203.329,115.238c-11.456,6.48-29.936,6.318-41.277-0.364c-5.396-3.179-8.198-7.262-8.424-11.367 c-0.223,4.445,2.576,8.951,8.424,12.397c11.341,6.681,29.821,6.844,41.277,0.364c6.004-3.396,8.882-7.944,8.633-12.465 C211.753,107.979,208.878,112.1,203.329,115.238z"/>
    </g>
    <path style="fill:#0C0A78;" d="M185.381,118.366h-5.171c-0.361,0-0.653-0.293-0.653-0.653v-0.091c0-0.361,0.292-0.654,0.653-0.654 h5.171c0.361,0,0.653,0.293,0.653,0.654v0.091C186.035,118.073,185.742,118.366,185.381,118.366z"/>
    <linearGradient id="SVGID_00000057852994558884630830000015856866020867077255_" gradientUnits="userSpaceOnUse" x1="178.9827" y1="117.4271" x2="187.3873" y2="117.4271">
      <stop offset="0" style="stop-color:#131060"/>
      <stop offset="0.1857" style="stop-color:#141062"/>
      <stop offset="0.2823" style="stop-color:#19106A"/>
      <stop offset="0.3584" style="stop-color:#221078"/>
      <stop offset="0.4238" style="stop-color:#2E0F8B"/>
      <stop offset="0.4823" style="stop-color:#3E0FA3"/>
      <stop offset="0.5359" style="stop-color:#510EC2"/>
      <stop offset="0.5847" style="stop-color:#680DE5"/>
      <stop offset="0.6071" style="stop-color:#740DF8"/>
      <stop offset="0.6179" style="stop-color:#7A14F0"/>
      <stop offset="0.6826" style="stop-color:#9B3CC3"/>
      <stop offset="0.7477" style="stop-color:#B75D9D"/>
      <stop offset="0.8123" style="stop-color:#CC7680"/>
      <stop offset="0.8762" style="stop-color:#DC886C"/>
      <stop offset="0.9391" style="stop-color:#E5935F"/>
      <stop offset="1" style="stop-color:#E8975B"/>
    </linearGradient>
    <path style="fill:url(#SVGID_00000057852994558884630830000015856866020867077255_);" d="M185.381,116.968h-5.171 c-0.361,0-0.653,0.293-0.653,0.654v0.091c0,0.062,0.019,0.117,0.035,0.174c0.077-0.274,0.319-0.479,0.618-0.479h5.171 c0.299,0,0.541,0.205,0.618,0.479c0.016-0.057,0.035-0.112,0.035-0.174v-0.091C186.035,117.26,185.742,116.968,185.381,116.968z"/>
    <g>
      <path style="fill:#E8975B;" d="M183.588,164.21c-0.634,2.385-3.082,3.805-5.468,3.171c-2.385-0.634-3.805-3.082-3.171-5.467 c0.634-2.385,2.884-3.061,5.27-2.427C182.605,160.121,184.222,161.825,183.588,164.21z"/>
      <path style="fill:#E8975B;" d="M187.106,159.502c-0.9,0.879-2.051,0.766-2.815-0.016c-0.764-0.781-0.851-1.935,0.048-2.814 c0.9-0.879,2.61-1.313,3.374-0.531C188.478,156.923,188.006,158.623,187.106,159.502z"/>
      <path style="fill:#E8975B;" d="M182.432,155.763c-0.22,1.239-1.223,1.816-2.299,1.624c-1.076-0.191-1.818-1.079-1.597-2.318 c0.22-1.239,1.36-2.586,2.436-2.394C182.048,152.867,182.653,154.525,182.432,155.763z"/>
      <path style="fill:#E8975B;" d="M176.671,155.191c0.479,1.164-0.058,2.188-1.068,2.604c-1.011,0.416-2.113,0.065-2.592-1.098 c-0.479-1.163-0.24-2.912,0.771-3.328C174.792,152.953,176.192,154.028,176.671,155.191z"/>
    </g>
  </g>
  <path style="opacity: 0.5; fill: rgb(255, 255, 255);" d="M 514.266 318.023 C 514.266 318.023 536.33 312.817 527.325 294.962 C 518.319 277.105 500.892 271.664 507.855 257.38 C 507.855 257.38 496.904 268.943 507.231 284.587 C 517.557 300.232 519.801 298.435 519.709 305.917 C 519.596 314.808 509.404 318.023 509.404 318.023 L 514.266 318.023 Z"/>
  <path style="opacity: 0.5; fill: rgb(255, 255, 255);" d="M 492.138 269.998 C 492.138 269.998 487.719 257.12 514.571 244.14 C 514.571 244.14 490.896 268.001 498.753 279.779 C 498.753 279.779 492.408 272.292 492.138 269.998 Z"/>
</svg>